<?xml version="1.0" encoding="UTF-8"?>
<svg id="_Слой_1" fill="#f6fff8" data-name="Слой 1" xmlns="http://www.w3.org/2000/svg" viewBox="0 0 96 96">
  <defs>
    <style>
      .cls-1 {
        stroke-width: 0px;
      }
    </style>
  </defs>
  <path class="cls-1" d="m70.03,70.24c1.66-3.41,2.79-7.13,3.19-11.08,3.3-1.95,11.44-2.98,22.78-3.41-11.34-.43-19.48-1.46-22.78-3.41-.4-3.94-1.53-7.66-3.19-11.08.64-1.84,2.43-3.72,5.06-5.64-2.94,1.31-5.45,1.92-7.36,1.57-2.38-3.52-5.42-6.56-8.94-8.94-.34-1.91.26-4.42,1.57-7.36-1.91,2.63-3.8,4.41-5.64,5.06-3.41-1.66-7.13-2.79-11.08-3.19-1.95-3.3-2.98-11.44-3.41-22.78-.43,11.34-1.46,19.48-3.41,22.78-3.94.4-7.66,1.53-11.08,3.19-1.84-.64-3.72-2.43-5.64-5.06,1.31,2.94,1.92,5.45,1.57,7.36-3.52,2.38-6.56,5.42-8.94,8.94-1.91.34-4.42-.26-7.36-1.57,2.63,1.91,4.41,3.79,5.06,5.64-1.81,3.71-2.94,7.8-3.25,12.13-1.48,1.27-3.97,2.01-7.2,2.36,3.23.34,5.72,1.08,7.2,2.36.3,4.33,1.44,8.42,3.25,12.13-.64,1.84-2.43,3.72-5.06,5.64,2.94-1.31,5.45-1.92,7.36-1.57,2.38,3.52,5.42,6.56,8.94,8.94.34,1.91-.26,4.42-1.57,7.36,1.91-2.63,3.8-4.41,5.64-5.06,3.71,1.81,7.8,2.94,12.13,3.25,1.27,1.48,2.01,3.97,2.36,7.2.34-3.23,1.08-5.72,2.36-7.2,4.33-.3,8.42-1.44,12.13-3.25,1.84.64,3.72,2.43,5.64,5.06-1.31-2.94-1.92-5.45-1.57-7.36,3.52-2.38,6.56-5.42,8.94-8.94,1.91-.34,4.42.26,7.36,1.57-2.63-1.91-4.41-3.79-5.06-5.64Zm-59.18-14.24c0-6.76,2.28-12.98,6.1-17.96,2.94.01,9.01.07,9.32.17.61.24,1.05.66,1.32,1.27.2.45.29,1.46.29,3.01v4.95h-3.11v1.75c1.46,0,2.31.04,2.56.13.21.08.4.2.55.35v20.2c0,1.35-.07,2.21-.21,2.58-.2.49-.52.88-.98,1.17-.46.29-1.05.44-1.77.44l-.56-.03h-7.35c-3.86-4.99-6.16-11.24-6.16-18.03Zm29.5,29.5c-8.33,0-15.85-3.46-21.21-9.01h24.44c2.54,0,5.06-.3,7.57-.89,2.5-.6,4.64-1.62,6.42-3.07,2.15-1.72,3.89-3.99,5.21-6.82,1.32-2.83,1.98-5.88,1.98-9.17,0-4.83-1.34-9.1-4.02-12.82-2.43-3.36-5.58-5.66-9.48-6.89-2.64-.84-7.3-1.26-13.99-1.26h-18.19c5.37-5.59,12.91-9.07,21.27-9.07,16.29,0,29.5,13.21,29.5,29.5s-13.21,29.5-29.5,29.5Zm11.44-32.27c-1.72-2.39-3.96-4.02-6.72-4.89-1.87-.6-5.18-.9-9.93-.9h-1.83v-8.64h6.02c2.53,0,4.33.05,5.4.15,2,.22,3.8.73,5.42,1.54,1.62.81,3.08,1.99,4.41,3.54,1.32,1.55,2.31,3.29,2.97,5.23.66,1.94.98,4.23.98,6.87s-.33,5.03-.98,7.09c-.66,2.07-1.59,3.84-2.8,5.31-.94,1.14-1.9,2.03-2.88,2.69.52-.72.99-1.51,1.4-2.38.94-2.01,1.41-4.17,1.41-6.51,0-3.43-.95-6.46-2.85-9.1Zm-15.19-3.5c1.79,0,3.07.04,3.84.1,1.42.15,2.7.52,3.85,1.09,1.15.58,2.19,1.41,3.13,2.51s1.64,2.33,2.1,3.71c.47,1.38.7,3,.7,4.88s-.23,3.57-.7,5.03c-.46,1.47-1.13,2.72-1.99,3.77s-1.75,1.81-2.67,2.28c-.02,0-.04.02-.05.02-.09.01-.18.02-.27.03v-10.61c0-2.47-.57-4.38-1.7-5.73s-2.73-2.03-4.8-2.03c-1.15,0-2.2.31-3.15.94-.6.4-1.13.91-1.58,1.52v-7.53h3.29Zm-2.62,9.6c.67-.65,1.61-.97,2.83-.97s2.25.37,2.94,1.1c.69.73,1.04,1.77,1.04,3.12v10.78h-7.48v-13.02c.16-.38.38-.72.67-1Z"/>
</svg>